<?xml version="1.0" standalone="no"?>
<!DOCTYPE svg PUBLIC "-//W3C//DTD SVG 20010904//EN"
 "http://www.w3.org/TR/2001/REC-SVG-20010904/DTD/svg10.dtd">
<svg version="1.0" xmlns="http://www.w3.org/2000/svg"
 width="1024.000000pt" height="1024.000000pt" viewBox="0 0 1024.000000 1024.000000"
 preserveAspectRatio="xMidYMid meet">

<g transform="translate(0.000000,1024.000000) scale(0.100000,-0.100000)"
fill="#000000" stroke="none">
<path d="M4029 8165 c-176 -35 -412 -170 -644 -368 -112 -95 -315 -288 -315
-298 0 -13 90 -52 160 -70 67 -17 298 -18 353 -2 20 6 37 9 37 7 0 -3 -31 -40
-68 -83 -100 -113 -146 -176 -191 -265 -73 -143 -121 -316 -121 -440 l0 -69
78 74 c77 76 169 145 178 136 9 -8 -53 -148 -104 -235 -62 -108 -144 -218
-287 -382 -207 -238 -308 -386 -375 -546 -32 -78 -75 -230 -84 -304 l-6 -45
17 25 c36 51 118 132 187 184 70 53 176 120 176 111 0 -3 -25 -49 -54 -102
-30 -54 -97 -192 -149 -308 -125 -279 -172 -360 -322 -560 -81 -109 -204 -235
-228 -235 -7 0 -6 -4 3 -10 26 -17 162 -11 244 10 43 11 121 40 173 65 55 26
93 39 90 31 -57 -148 -87 -317 -94 -522 -6 -201 7 -322 53 -462 28 -83 91
-212 105 -212 5 0 9 16 9 36 0 99 74 360 128 452 29 50 42 42 42 -25 0 -56 23
-174 50 -252 110 -327 391 -636 763 -840 43 -24 80 -41 83 -39 2 3 -19 49 -46
104 -55 108 -114 280 -125 359 l-6 50 37 -45 c122 -147 317 -312 570 -481 245
-164 409 -309 551 -490 l48 -62 3 74 c7 170 -87 435 -233 654 -79 118 -185
247 -383 465 -230 253 -272 302 -375 440 -215 286 -324 534 -357 815 -19 156
1 305 61 462 29 76 87 183 99 183 3 0 -3 -39 -13 -87 -15 -69 -19 -130 -20
-288 -1 -223 13 -320 74 -492 52 -146 150 -323 211 -380 l23 -22 1 152 c1 84
6 165 11 181 9 29 10 29 33 -35 85 -231 222 -449 390 -617 87 -87 165 -145
157 -116 -20 64 -58 233 -72 314 -28 158 -19 410 14 410 4 0 15 -26 25 -58 50
-160 137 -301 258 -418 83 -80 201 -170 205 -157 2 5 -13 68 -33 139 -82 293
-49 565 96 786 53 82 135 163 206 204 45 27 138 59 132 46 -95 -183 -128 -293
-128 -426 0 -130 30 -238 91 -333 20 -32 26 -29 33 20 11 70 75 248 113 317
51 93 169 206 265 255 42 22 79 37 83 34 3 -3 -1 -35 -10 -70 -19 -82 -19
-210 0 -302 8 -40 37 -138 64 -219 79 -234 104 -357 105 -523 1 -77 -3 -158
-7 -180 l-9 -39 -39 83 c-43 91 -109 189 -159 236 l-33 30 6 -26 c30 -125 35
-372 12 -518 -20 -119 -52 -215 -114 -339 l-49 -97 -7 60 c-11 102 -25 174
-47 243 l-21 67 -18 -97 c-49 -273 -136 -452 -392 -808 -42 -58 -72 -106 -67
-108 14 -5 190 67 280 114 198 105 411 268 535 408 109 123 191 263 234 401
13 39 25 77 28 85 8 21 48 -106 69 -218 l17 -93 38 53 c43 59 90 171 110 263
9 39 14 121 13 235 -1 196 -18 296 -78 472 l-33 97 60 -42 c34 -23 99 -79 145
-124 l84 -81 -7 51 c-18 146 -68 268 -195 482 -115 192 -166 294 -200 402 -35
109 -30 131 32 159 52 23 153 23 358 -1 347 -40 553 5 753 164 297 236 677
704 677 834 0 71 -53 122 -230 220 -362 200 -862 484 -923 524 -123 81 -147
143 -108 271 11 39 21 81 21 94 -1 62 -100 213 -285 434 -68 82 -125 154 -125
161 0 6 23 14 53 18 73 9 157 34 157 46 0 24 -38 79 -97 140 l-64 66 48 13
c91 25 292 122 293 140 0 10 -238 99 -343 129 -124 35 -274 66 -417 86 -315
44 -459 -12 -651 -255 -35 -45 -65 -85 -67 -89 -1 -5 26 -14 60 -20 93 -18
318 -86 444 -136 232 -90 366 -174 502 -314 99 -101 134 -167 217 -410 62
-184 90 -244 147 -318 77 -100 136 -139 538 -355 168 -90 332 -181 365 -203
l60 -38 -55 -12 c-62 -12 -107 -34 -131 -61 -69 -78 -85 -204 -37 -286 37 -62
118 -132 202 -173 l69 -33 -34 -21 c-43 -26 -130 -28 -177 -3 -41 22 -126 104
-163 158 -45 66 -57 111 -61 224 -5 137 -24 173 -155 301 -124 122 -172 158
-345 265 -77 48 -162 108 -189 133 -59 55 -111 140 -140 230 -151 458 -332
690 -663 847 -126 59 -237 94 -553 174 -150 38 -282 74 -293 80 -11 6 -69 69
-130 139 -201 235 -324 331 -471 366 -77 18 -200 18 -290 0z m1744 -1682 c-5
-16 -8 -47 -8 -71 1 -98 126 -141 195 -66 18 19 26 41 30 82 l5 57 23 -42 c29
-56 28 -97 -3 -128 -21 -22 -33 -25 -103 -25 -70 0 -87 4 -148 34 -79 40 -140
96 -130 121 6 17 100 65 129 65 14 0 16 -5 10 -27z m1552 -1562 c-56 -55 -146
-107 -240 -138 -68 -22 -103 -27 -235 -30 -171 -6 -308 12 -525 67 -107 27
-318 109 -282 110 9 0 115 -16 235 -35 472 -75 618 -72 937 24 72 22 134 40
140 40 5 1 -8 -17 -30 -38z"/>
</g>
</svg>
